<svg xmlns="http://www.w3.org/2000/svg" viewBox="0 0 100 100">
  <defs>
    <linearGradient id="gold" x1="0%" y1="0%" x2="100%" y2="100%">
      <stop offset="0%" style="stop-color:#B8860B"/>
      <stop offset="50%" style="stop-color:#FFD700"/>
      <stop offset="100%" style="stop-color:#D4AF37"/>
    </linearGradient>
  </defs>
  <circle cx="50" cy="50" r="48" fill="#0A0A0F" stroke="url(#gold)" stroke-width="2"/>
  <g transform="translate(50, 50)">
    <path d="M 0 -35 A 35 35 0 0 1 0 35 A 17.5 17.5 0 0 1 0 0 A 17.5 17.5 0 0 0 0 -35" fill="url(#gold)"/>
    <path d="M 0 35 A 35 35 0 0 1 0 -35 A 17.5 17.5 0 0 1 0 0 A 17.5 17.5 0 0 0 0 35" fill="#0A0A0F" stroke="url(#gold)" stroke-width="0.5"/>
    <circle cx="0" cy="-17.5" r="5" fill="#0A0A0F"/>
    <circle cx="0" cy="17.5" r="5" fill="url(#gold)"/>
  </g>
</svg>
